<svg xmlns="http://www.w3.org/2000/svg" height="24" viewBox="0 -960 960 960" width="24" role="presentation" style="transition: transform 0.15s; height: 60%; width: 60%; fill: white;"><path d="M479.133-730Q438-730 409-758.288q-29-28.287-29-69.5Q380-869 408.867-898q28.868-29 70-29Q520-927 549-898.133q29 28.867 29 70.08 0 41.212-28.867 69.633-28.867 28.42-70 28.42ZM334-63v-512q-59.043-4.6-119.3-14.229Q154.444-598.857 94-617l31-117q83 24 175.454 33.5 92.454 9.5 178.5 9.5T659-700.5q94-9.5 178-33.5l30 117q-62 16-122 26.5t-119 15.443V-63H506v-251h-52v251H334Z"></path></svg> 