<svg xmlns="http://www.w3.org/2000/svg" width="43" height="44" viewBox="0 0 43 44" fill="none">
<path d="M34.195 30.9195C34.1509 30.8313 34.1067 30.7872 34.0626 30.6989C34.0626 30.6548 34.0185 30.6548 34.0185 30.6107C33.8421 30.3018 33.5774 30.1254 33.1804 30.0371C33.0481 29.993 32.9598 29.993 32.8275 29.993C32.5187 29.993 32.2099 30.0812 31.8571 30.3018C31.5483 30.4783 31.2836 30.6548 30.9748 30.8754C30.9307 30.7872 30.8866 30.6989 30.8425 30.6107C30.666 30.346 30.5337 30.0371 30.3573 29.7724C29.9161 29.0223 29.475 28.2281 29.0339 27.4781C28.9457 27.3016 28.8134 27.081 28.7251 26.9045C28.3722 26.2868 28.0194 25.6691 27.6665 25.0514C27.0489 24.0807 26.1667 23.463 25.0639 23.2866C23.7846 23.066 22.4613 22.8453 21.1821 22.6247C21.2262 22.2276 21.3144 21.8306 21.3585 21.4776C21.4026 21.1687 21.4467 20.904 21.4908 20.5952C21.7996 18.7862 22.7701 16.0507 21.2262 14.5947C20.8292 14.1976 20.3881 14.0211 19.9028 14.0652C19.1529 14.1093 18.5795 14.2417 17.9619 14.4623C16.3739 15.08 14.7418 15.6977 13.1979 16.2713C12.9332 16.3595 12.6685 16.4478 12.448 16.536C11.8745 16.7566 11.3893 17.1537 11.0364 17.6832L10.9041 17.9038C10.2424 18.9186 9.58073 19.9775 8.91906 21.0364C8.74261 21.3011 8.61028 21.6099 8.56617 21.9188C8.47794 22.1835 8.47794 22.4924 8.56617 22.7571C8.74261 23.3748 9.36017 23.7719 9.97774 23.816C10.6835 23.8601 11.3011 23.3307 11.654 22.7571L12.0069 22.1835C12.5803 21.257 13.1979 20.2863 13.8154 19.3598C14.4771 19.095 15.0947 18.8744 15.7563 18.6097C15.4917 20.2422 15.227 21.8747 14.9623 23.463C14.9182 23.6837 14.9182 23.8601 14.9182 24.0366C14.9182 24.0807 14.9182 24.1249 14.9182 24.1249C14.9182 24.5661 15.0947 25.0073 15.3152 25.272C15.7122 25.8015 16.2416 26.1103 16.9032 26.2427C17.8296 26.4192 18.7559 26.5957 19.6382 26.728L19.9469 26.7721C21.0497 26.9486 22.0202 27.1251 22.9906 27.2575C23.3876 27.3016 23.7405 27.3457 24.1375 27.434C24.3581 27.4781 24.6228 27.4781 24.8433 27.5222C25.3727 28.4487 25.9461 29.4194 26.4313 30.346L28.1076 33.3021C28.7251 34.4051 29.5191 35.6405 30.9748 34.7581C32.0776 34.0963 32.9157 33.5668 33.6656 33.0815C33.8421 32.9932 33.9744 32.8609 34.1067 32.7285C34.592 32.1549 34.6361 31.449 34.195 30.9195Z" fill="white"/>
<path d="M17.5999 35.0586C13.7036 35.0586 10.5 31.9741 10.5 28.129C10.5 26.3121 11.1927 24.622 12.4914 23.3121C12.7945 22.9741 13.314 22.9741 13.6603 23.3121C14.0067 23.6079 14.0067 24.1149 13.6603 24.453C12.6646 25.467 12.1451 26.7769 12.1451 28.129C12.1451 31.0445 14.5695 33.453 17.5999 33.453C20.1109 33.453 22.2755 31.8051 22.8816 29.4389C23.0115 29.0163 23.4444 28.7628 23.8773 28.8473C24.3102 28.9741 24.57 29.3966 24.4834 29.8192C23.6609 32.9037 20.8469 35.0586 17.5999 35.0586Z" fill="white"/>
<path d="M21.5 14.0586C23.1569 14.0586 24.5 12.7154 24.5 11.0586C24.5 9.40174 23.1569 8.05859 21.5 8.05859C19.8431 8.05859 18.5 9.40174 18.5 11.0586C18.5 12.7154 19.8431 14.0586 21.5 14.0586Z" fill="white"/>
</svg>