<svg width="36" height="36" viewBox="0 0 36 36" fill="none" xmlns="http://www.w3.org/2000/svg">
<path fill-rule="evenodd" clip-rule="evenodd" d="M17.3604 6V29.986H19.3324V6H17.3604Z" fill="black"/>
<path fill-rule="evenodd" clip-rule="evenodd" d="M15.333 18V19.968H21.333V18H15.333Z" fill="black"/>
<path d="M19.333 7C19.7181 6.08419 21.0326 4.67384 21.8859 4.20677C22.6931 3.76169 23.5233 3.38254 24.3166 3.1829C25.2875 2.93563 27.333 3.01072 27.333 3.01072" stroke="black"/>
<path d="M17.333 7C16.9758 6.03928 15.5028 4.56617 14.8469 4.16541C14.0625 3.68962 13.1918 3.38219 12.3887 3.18273C11.4036 2.93569 9.33301 3.01071 9.33301 3.01071" stroke="black"/>
<path d="M19.333 29C19.7181 29.9158 21.0326 31.3262 21.8859 31.7932C22.6931 32.2383 23.5233 32.6175 24.3166 32.8171C25.2875 33.0644 27.333 32.9893 27.333 32.9893" stroke="black"/>
<path d="M17.333 29C16.9758 29.9607 15.5028 31.4338 14.8469 31.8346C14.0625 32.3104 13.1918 32.6178 12.3887 32.8173C11.4036 33.0643 9.33301 32.9893 9.33301 32.9893" stroke="black"/>
</svg>
