<?xml version="1.0" encoding="utf-8"?>
<!-- Svg Vector Icons : http://www.onlinewebfonts.com/icon -->
<!DOCTYPE svg PUBLIC "-//W3C//DTD SVG 1.1//EN" "http://www.w3.org/Graphics/SVG/1.1/DTD/svg11.dtd">
<svg version="1.1" xmlns="http://www.w3.org/2000/svg" xmlns:xlink="http://www.w3.org/1999/xlink" x="0px" y="0px" viewBox="0 0 256 256" enable-background="new 0 0 256 256" xml:space="preserve">
<metadata> Svg Vector Icons : http://www.onlinewebfonts.com/icon </metadata>
<g><g><path fill="#000000" d="M16.7,98.8L16.7,98.8h76.5c3.7,0,6.7-3,6.7-6.7s-3-6.7-6.7-6.7H30.5c16.7-36.8,53.8-62.4,96.9-62.4c53.2,0,97.4,39.1,105.1,90.2H246C238.1,54.8,188,9.8,127.4,9.8c-44.6,0-83.5,24.4-104.1,60.6V15.7c0-3.7-3-6.7-6.7-6.7l0,0C13,9,10,12,10,15.7v76.5C10,95.8,13,98.8,16.7,98.8z"/><path fill="#000000" d="M239.3,157.2h-76.5c-3.7,0-6.7,3-6.7,6.7c0,3.7,3,6.7,6.7,6.7h62.6c-16.7,36.8-53.8,62.4-96.9,62.4c-53.2,0-97.4-39.1-105.1-90.2H10c7.9,58.4,58,103.5,118.6,103.5c44.6,0,83.5-24.4,104.1-60.6v54.7c0,3.7,3,6.7,6.7,6.7s6.7-3,6.7-6.7v-76.5C246,160.2,243,157.2,239.3,157.2z"/></g></g>
</svg>