<svg xmlns="http://www.w3.org/2000/svg" width="36" height="36" viewBox="0 0 36 36" fill="none"><g clip-path="url(#clip0_45_270)"><path d="M14.25 14.875H21.75M6.75 14.875H9.25M26.75 14.875H29.25M6.75 8.625H9.25M13.4175 8.625H15.9175M20.0825 8.625H22.5825M26.75 8.625H29.25M13 29.25L18 34.25L23 29.25M31.75 1.75H4.25C3.58696 1.75 2.95107 2.01339 2.48223 2.48223C2.01339 2.95107 1.75 3.58696 1.75 4.25V19.25C1.75 19.913 2.01339 20.5489 2.48223 21.0178C2.95107 21.4866 3.58696 21.75 4.25 21.75H31.75C32.413 21.75 33.0489 21.4866 33.5178 21.0178C33.9866 20.5489 34.25 19.913 34.25 19.25V4.25C34.25 3.58696 33.9866 2.95107 33.5178 2.48223C33.0489 2.01339 32.413 1.75 31.75 1.75Z" stroke="#00499E" stroke-width="2.5" stroke-linecap="round" stroke-linejoin="round"></path></g><defs><clipPath id="clip0_45_270"><rect width="35" height="35" fill="white" transform="translate(0.5 0.5)"></rect></clipPath></defs></svg>