<svg xmlns="http://www.w3.org/2000/svg" width="24" height="24" viewBox="0 0 24 24" fill="none">
<path d="M12 21.997C6.477 21.997 2 17.52 2 11.997C2 6.474 6.477 1.997 12 1.997C17.523 1.997 22 6.474 22 11.997C22 17.52 17.523 21.997 12 21.997ZM12 19.997C14.1217 19.997 16.1566 19.1541 17.6569 17.6539C19.1571 16.1536 20 14.1187 20 11.997C20 9.87527 19.1571 7.84044 17.6569 6.34015C16.1566 4.83985 14.1217 3.997 12 3.997C9.87827 3.997 7.84344 4.83985 6.34315 6.34015C4.84285 7.84044 4 9.87527 4 11.997C4 14.1187 4.84285 16.1536 6.34315 17.6539C7.84344 19.1541 9.87827 19.997 12 19.997ZM12 17.997V5.997C13.5913 5.997 15.1174 6.62914 16.2426 7.75436C17.3679 8.87958 18 10.4057 18 11.997C18 13.5883 17.3679 15.1144 16.2426 16.2396C15.1174 17.3649 13.5913 17.997 12 17.997Z" fill="#00499E"/>
</svg>