<svg xmlns="http://www.w3.org/2000/svg" width="72" height="72" viewBox="0 0 184 184" fill="none">
<g filter="url(#filter0_i_3_9)">
<rect width="184" height="184" rx="50" fill="white"/>
</g>
<path d="M52.0592 129.528C51.1906 129.449 50.5984 129.054 50.2825 128.343C49.4139 126.606 48.9797 124.119 48.9797 120.881C48.9797 115.67 49.9667 108.682 51.9407 99.917C52.0987 99.0484 52.1776 98.4562 52.1776 98.1404C52.1776 97.8245 52.0987 97.6666 51.9407 97.6666C51.7038 97.6666 50.243 99.4038 47.5583 102.878C41.3993 110.616 37.2143 115.512 35.0034 117.565C32.0818 120.329 29.4365 121.711 27.0677 121.711C24.383 121.316 22.0536 119.5 20.0795 116.262C18.0265 113.025 17 109.116 17 104.536C17 98.0614 18.3818 91.1522 21.1455 83.8088C25.0147 73.1489 30.8184 64.3446 38.5567 57.3959C39.82 56.1325 41.2414 54.9876 42.8206 53.9611C45.9791 51.987 48.8217 51 51.3485 51C53.0857 51 54.6254 51.4738 55.9678 52.4213C58.4156 54.2374 59.6395 56.172 59.6395 58.225C59.6395 60.1201 58.1787 64.2261 55.2571 70.5431L52.2961 77.6497C51.9012 78.7552 51.3485 79.3079 50.6379 79.3079C50.1641 79.3079 49.7298 79.1895 49.335 78.9526C47.8347 78.163 47.0846 76.939 47.0846 75.2808C47.0846 73.5437 47.5583 71.8065 48.5059 70.0693C49.4534 68.2532 50.6379 65.9238 52.0592 63.0812C53.0857 61.1861 53.5989 59.3305 53.5989 57.5144C52.2566 57.5144 51.309 57.6328 50.7563 57.8697C46.5713 60.0806 43.2549 62.6864 40.8071 65.6869C30.6999 77.7681 25.291 91.5865 24.5804 107.142C24.5804 112.827 25.8832 115.67 28.489 115.67C29.7524 114.88 31.9238 112.867 35.0034 109.629C42.5837 101.654 47.8347 95.1003 50.7563 89.9678L45.1895 90.9153C44.163 90.9153 43.2154 90.6785 42.3468 90.2047C41.0045 89.573 40.3333 88.5465 40.3333 87.1252C40.3333 86.1776 40.886 85.7038 41.9915 85.7038C44.0445 85.7038 46.4923 85.2301 49.335 84.2825C51.7828 83.4139 53.6384 82.9796 54.9018 82.9796C56.3231 82.9796 57.5865 83.3745 58.692 84.1641C60.666 85.3485 61.6531 86.7698 61.6531 88.428C61.6531 90.481 60.9424 93.2447 59.5211 96.7191C56.2047 107.932 54.4675 117.723 54.3096 126.093L54.428 127.04C54.428 128.699 53.6384 129.528 52.0592 129.528Z" fill="#00499E"/>
<path d="M83.8843 111.88C81.0416 111.88 79.6203 109.511 79.6203 104.773L79.7388 101.812C79.7388 100.391 79.5809 99.6801 79.265 99.6801C78.9492 99.6801 78.4754 100.154 77.8437 101.101C75.7117 104.26 73.6982 105.839 71.8031 105.839C71.6452 105.839 71.1319 105.8 70.2633 105.721C69.4737 105.563 68.6051 104.576 67.6576 102.76C66.9469 101.18 66.5916 99.0879 66.5916 96.4822C66.8285 90.56 68.4867 85.0721 71.5662 80.0186C72.4348 78.7552 73.1849 78.1235 73.8166 78.1235C74.1325 78.1235 74.5273 78.2419 75.0011 78.4788C76.1065 79.1895 76.6593 80.0581 76.6593 81.0846C76.6593 81.6373 76.5013 82.2295 76.1855 82.8612C73.7377 87.52 72.3558 92.3367 72.04 97.3113C72.04 98.2588 72.2374 98.7326 72.6322 98.7326C73.8166 98.7326 76.4224 95.2977 80.4494 88.428C81.6339 86.454 83.1736 84.0851 85.0687 81.3214C85.7794 80.058 86.2137 79.3474 86.3716 79.1895C86.6085 79.0315 86.7664 78.8736 86.8454 78.7157C87.556 78.084 88.1877 77.7681 88.7405 77.7681C89.1353 77.7681 89.5696 77.9261 90.0433 78.2419C91.0698 79.0315 91.5831 79.8212 91.5831 80.6108C91.5831 81.0846 91.4252 81.5583 91.1093 82.0321C89.8459 84.0851 88.6615 86.8488 87.556 90.3231C85.582 96.3242 84.5949 101.496 84.5949 105.839C84.5949 107.576 84.7529 109.156 85.0687 110.577C85.0687 111.445 84.6739 111.88 83.8843 111.88Z" fill="#00499E"/>
<path d="M98.5361 109.156C95.4566 109.156 93.9168 107.142 93.9168 103.115C93.9168 98.2193 94.588 92.5341 95.9303 86.0592C96.8779 80.7687 98.2597 78.1235 100.076 78.1235C100.55 78.1235 101.023 78.2024 101.497 78.3604C103.155 78.9921 103.984 80.058 103.984 81.5583L103.629 83.0981C102.524 85.7038 101.695 88.3885 101.142 91.1522C100.194 95.732 99.6415 99.3248 99.4836 101.931C99.4836 103.51 99.6021 105.089 99.839 106.668C99.839 108.326 99.4047 109.156 98.5361 109.156Z" fill="#00499E"/>
<path d="M111.237 101.931C113.764 99.6406 116.291 96.2848 118.818 91.8629C120.476 89.1782 121.305 87.2436 121.305 86.0592C121.305 85.3485 121.029 84.9932 120.476 84.9932C119.291 84.9932 118.067 85.5854 116.804 86.7698C113.014 91.8234 111.119 96.3637 111.119 100.391L111.237 101.931ZM127.346 124.079C123.713 124.079 121.897 119.776 121.897 111.169C121.897 106.589 122.252 102.72 122.963 99.5617C123.753 96.4032 124.148 94.666 124.148 94.3502C124.148 94.0343 124.069 93.8764 123.911 93.8764C123.2 94.9029 121.147 97.864 117.752 102.76C114.356 107.576 111.593 109.985 109.461 109.985C106.144 109.985 104.486 107.221 104.486 101.694C104.486 96.2453 105.749 91.2312 108.276 86.6514C111.277 81.282 114.751 78.5972 118.699 78.5972C120.594 78.5972 122.963 79.2684 125.806 80.6108C131.333 62.8443 135.005 53.9611 136.821 53.9611C139.111 54.5138 140.256 55.7772 140.256 57.7513C140.256 58.8567 139.861 60.278 139.071 62.0152C131.491 85.6249 127.701 102.997 127.701 114.13C127.701 117.999 128.056 120.566 128.767 121.829C128.925 122.145 129.004 122.421 129.004 122.658C129.004 123.448 128.451 123.922 127.346 124.079Z" fill="#00499E"/>
<path d="M151.88 132.252C149.274 132.015 147.971 129.725 147.971 125.382C147.971 121.592 148.721 116.025 150.222 108.682C151.801 100.786 152.827 96.4032 153.301 95.5346L153.42 94.5871L153.301 93.9949C152.591 94.3897 151.998 94.9029 151.525 95.5346C151.367 95.7715 151.169 95.9689 150.932 96.1268L149.629 97.5482C146.471 101.259 143.826 103.115 141.694 103.115C140.825 103.115 139.957 102.878 139.088 102.404C136.956 101.299 135.89 99.3248 135.89 96.4822C135.89 95.6136 135.969 94.666 136.127 93.6395C136.996 88.2701 138.535 83.3745 140.746 78.9526C141.615 77.4523 142.523 76.7022 143.47 76.7022C143.944 76.7022 144.457 76.8206 145.01 77.0575C146.432 77.7681 147.142 78.7552 147.142 80.0186C147.142 80.5713 146.984 81.203 146.668 81.9137C145.879 83.5719 145.208 85.309 144.655 87.1252C143.47 91.0733 142.878 93.6 142.878 94.7055L142.997 96.0084L144.181 94.7055C145.05 93.8369 145.839 92.9684 146.55 92.0998C148.445 89.9678 150.38 87.8753 152.354 85.8223C155.275 82.8217 157.999 79.7817 160.526 76.7022C161.079 75.9125 161.79 75.5177 162.658 75.5177C163.132 75.5177 163.685 75.6757 164.316 75.9915C165.659 76.7811 166.33 77.7681 166.33 78.9526L166.212 80.0186C162.658 89.1782 160.171 96.0084 158.75 100.509C157.486 104.536 156.223 109.827 154.959 116.381C154.959 116.696 154.92 116.973 154.841 117.21C154.051 120.842 153.657 123.803 153.657 126.093C153.657 127.435 153.775 128.817 154.012 130.238V130.594C154.012 131.699 153.301 132.252 151.88 132.252Z" fill="#00499E"/>
<path fill-rule="evenodd" clip-rule="evenodd" d="M108.221 68.334C108.787 67.9836 109.504 68.4496 109.414 69.1081L107.83 80.676C107.75 81.2585 107.12 81.5086 106.671 81.26C106.45 81.1376 106.37 80.8749 106.307 80.6302C106.109 79.8569 105.577 78.0697 104.686 77.1789C103.765 76.2583 102.501 75.7654 101.2 75.8198L98.7907 75.9207C98.6537 75.9264 98.5127 75.9264 98.3873 75.871C97.8395 75.6293 97.743 74.8307 98.298 74.486L108.221 68.334Z" fill="#1593EF"/>
<defs>
<filter id="filter0_i_3_9" x="0" y="0" width="184" height="184" filterUnits="userSpaceOnUse" color-interpolation-filters="sRGB">
<feFlood flood-opacity="0" result="BackgroundImageFix"/>
<feBlend mode="normal" in="SourceGraphic" in2="BackgroundImageFix" result="shape"/>
<feColorMatrix in="SourceAlpha" type="matrix" values="0 0 0 0 0 0 0 0 0 0 0 0 0 0 0 0 0 0 127 0" result="hardAlpha"/>
<feOffset/>
<feGaussianBlur stdDeviation="4.05"/>
<feComposite in2="hardAlpha" operator="arithmetic" k2="-1" k3="1"/>
<feColorMatrix type="matrix" values="0 0 0 0 0 0 0 0 0 0 0 0 0 0 0 0 0 0 0.59 0"/>
<feBlend mode="normal" in2="shape" result="effect1_innerShadow_3_9"/>
</filter>
</defs>
</svg>