<svg width="36" height="36" viewBox="0 0 36 36" fill="none" xmlns="http://www.w3.org/2000/svg">
<path fill-rule="evenodd" clip-rule="evenodd" d="M9.76234 24.8482C9.26116 24.2147 8.65234 22.9194 7.56881 21.347C6.95469 20.4576 5.43175 18.7829 4.97822 17.9323C4.58469 17.1806 4.62704 16.8435 4.72057 16.2206C4.88646 15.1123 6.02293 14.2494 7.23528 14.3659C8.15116 14.4523 8.92763 15.0576 9.62646 15.6294C10.0482 15.9735 10.567 16.6423 10.8794 17.02C11.167 17.3659 11.2376 17.5088 11.5447 17.9182C11.9506 18.46 12.0776 18.7282 11.9223 18.1317C11.797 17.2565 11.5923 15.7617 11.2959 14.44C11.07 13.4376 11.0153 13.2806 10.8 12.5112C10.5723 11.6923 10.4559 11.1188 10.2423 10.2506C10.0941 9.63645 9.82763 8.38175 9.75528 7.67586C9.65469 6.71057 9.60175 5.13645 10.2212 4.41292C10.7065 3.84645 11.82 3.67528 12.51 4.02469C13.4135 4.48175 13.927 5.79469 14.1618 6.31881C14.5835 7.26116 14.8447 8.34998 15.0723 9.77939C15.3617 11.5988 15.8947 14.1241 15.9123 14.6553C15.9547 14.0041 15.7923 12.6329 15.9053 12.0082C16.0076 11.4417 16.4841 10.7835 17.0806 10.6053C17.5853 10.4553 18.1765 10.4006 18.697 10.5082C19.2494 10.6212 19.8317 11.0165 20.0488 11.3888C20.6876 12.49 20.7 14.74 20.7265 14.62C20.8782 13.9565 20.8517 12.4512 21.2276 11.8247C21.4747 11.4117 22.1047 11.0394 22.44 10.9794C22.9588 10.8876 23.5959 10.8594 24.1412 10.9653C24.5806 11.0517 25.1753 11.5741 25.3359 11.8247C25.7206 12.4317 25.9394 14.1488 26.0047 14.7506C26.0312 14.9994 26.1353 14.0588 26.5217 13.4517C27.2382 12.3241 29.7741 12.1053 29.8712 14.5794C29.9153 15.7335 29.9065 15.6806 29.9065 16.457C29.9065 17.3694 29.8853 17.9182 29.8359 18.5782C29.7812 19.2841 29.6294 20.8794 29.4088 21.6523C29.257 22.1835 28.7541 23.3782 28.2582 24.0947C28.2582 24.0947 26.3629 26.3006 26.1565 27.2941C25.9482 28.2859 26.017 28.2929 25.9765 28.997C25.9359 29.6994 26.19 30.6241 26.19 30.6241C26.19 30.6241 24.7747 30.8076 24.0123 30.6859C23.3223 30.5747 22.4682 29.2017 22.2476 28.7817C21.9441 28.2029 21.2965 28.3141 21.0441 28.7412C20.647 29.417 19.7929 30.6294 19.1894 30.7053C18.0106 30.8535 15.5647 30.76 13.65 30.7406C13.65 30.7406 13.9765 28.9565 13.2494 28.3441C12.7112 27.887 11.7847 26.9606 11.2306 26.4735L9.76234 24.8482Z" fill="white"/>
<path fill-rule="evenodd" clip-rule="evenodd" d="M9.76234 24.8482C9.26116 24.2147 8.65234 22.9194 7.56881 21.347C6.95469 20.4576 5.43175 18.7829 4.97822 17.9323C4.58469 17.1806 4.62704 16.8435 4.72057 16.2206C4.88646 15.1123 6.02293 14.2494 7.23528 14.3659C8.15116 14.4523 8.92763 15.0576 9.62646 15.6294C10.0482 15.9735 10.567 16.6423 10.8794 17.02C11.167 17.3659 11.2376 17.5088 11.5447 17.9182C11.9506 18.46 12.0776 18.7282 11.9223 18.1317C11.797 17.2565 11.5923 15.7617 11.2959 14.44C11.07 13.4376 11.0153 13.2806 10.8 12.5112C10.5723 11.6923 10.4559 11.1188 10.2423 10.2506C10.0941 9.63645 9.82763 8.38175 9.75528 7.67586C9.65469 6.71057 9.60175 5.13645 10.2212 4.41292C10.7065 3.84645 11.82 3.67528 12.51 4.02469C13.4135 4.48175 13.927 5.79469 14.1618 6.31881C14.5835 7.26116 14.8447 8.34998 15.0723 9.77939C15.3617 11.5988 15.8947 14.1241 15.9123 14.6553C15.9547 14.0041 15.7923 12.6329 15.9053 12.0082C16.0076 11.4417 16.4841 10.7835 17.0806 10.6053C17.5853 10.4553 18.1765 10.4006 18.697 10.5082C19.2494 10.6212 19.8317 11.0165 20.0488 11.3888C20.6876 12.49 20.7 14.74 20.7265 14.62C20.8782 13.9565 20.8517 12.4512 21.2276 11.8247C21.4747 11.4117 22.1047 11.0394 22.44 10.9794C22.9588 10.8876 23.5959 10.8594 24.1412 10.9653C24.5806 11.0517 25.1753 11.5741 25.3359 11.8247C25.7206 12.4317 25.9394 14.1488 26.0047 14.7506C26.0312 14.9994 26.1353 14.0588 26.5217 13.4517C27.2382 12.3241 29.7741 12.1053 29.8712 14.5794C29.9153 15.7335 29.9065 15.6806 29.9065 16.457C29.9065 17.3694 29.8853 17.9182 29.8359 18.5782C29.7812 19.2841 29.6294 20.8794 29.4088 21.6523C29.257 22.1835 28.7541 23.3782 28.2582 24.0947C28.2582 24.0947 26.3629 26.3006 26.1565 27.2941C25.9482 28.2859 26.017 28.2929 25.9765 28.997C25.9359 29.6994 26.19 30.6241 26.19 30.6241C26.19 30.6241 24.7747 30.8076 24.0123 30.6859C23.3223 30.5747 22.4682 29.2017 22.2476 28.7817C21.9441 28.2029 21.2965 28.3141 21.0441 28.7412C20.647 29.417 19.7929 30.6294 19.1894 30.7053C18.0106 30.8535 15.5647 30.76 13.65 30.7406C13.65 30.7406 13.9765 28.9565 13.2494 28.3441C12.7112 27.887 11.7847 26.9606 11.2306 26.4735L9.76234 24.8482Z" stroke="black" stroke-width="0.75" stroke-linecap="round" stroke-linejoin="round"/>
<path d="M24.2949 25.4752V19.3711" stroke="black" stroke-width="0.75" stroke-linecap="round"/>
<path d="M20.7372 25.496L20.709 19.3672" stroke="black" stroke-width="0.75" stroke-linecap="round"/>
<path d="M17.2148 19.4219L17.2519 25.4678" stroke="black" stroke-width="0.75" stroke-linecap="round"/>
</svg>
