<svg xmlns="http://www.w3.org/2000/svg" width="31" height="31" viewBox="0 0 31 31" fill="none">
<g clip-path="url(#clip0_475_1038)">
<g clip-path="url(#clip1_475_1038)">
<path d="M18.6817 14.1446C18.522 14.2299 18.3367 14.2716 18.1428 14.2554C18.1011 14.252 18.0607 14.2466 18.0195 14.2425L24.5999 28.5848L24.98 28.4176L18.7907 14.0762C18.7558 14.1012 18.7197 14.1243 18.6817 14.1446Z" fill="white"/>
<path d="M17.2879 3.29121C17.5631 1.80629 16.5823 0.379463 15.0973 0.104292C13.6124 -0.170879 12.1855 0.809811 11.9103 2.29472C11.6352 3.77964 12.6159 5.20647 14.1009 5.48164C15.5859 5.75681 17.0128 4.77612 17.2879 3.29121Z" fill="white"/>
<path d="M9.493 29.0991C10.6547 27.2304 11.4545 25.365 12.0046 23.6438C11.9492 24.9543 11.7411 26.4545 11.293 28.1503C11.0784 28.9616 11.5624 29.7931 12.3741 30.0077C12.5041 30.0419 12.6346 30.0583 12.7631 30.0583C13.4359 30.0583 14.0513 29.608 14.2313 28.9266C14.8294 26.6634 15.0595 24.6539 15.0595 22.9119C15.0611 18.7898 13.7717 16.2044 13.1674 15.223C13.0397 14.0954 13.0726 12.9898 13.2426 11.9347C12.4388 11.1264 11.8761 10.256 11.4937 9.54186C11.0274 8.66794 10.8292 8.02208 10.8154 7.97783C10.6593 7.46398 10.9496 6.92083 11.4635 6.76475C11.9773 6.60866 12.5204 6.89895 12.6765 7.4128L12.6764 7.41292C12.6891 7.45328 12.8534 7.95996 13.2092 8.62552C13.3784 8.94292 13.5937 9.29557 13.8518 9.65187C13.8676 9.61042 13.8823 9.56824 13.8986 9.52703C14.3826 8.26933 14.1191 6.77897 13.1048 5.85801C12.1076 4.94567 10.3621 5.37175 9.54783 7.21173C8.44209 9.74864 7.9624 12.6287 8.25743 15.582C8.38143 16.9327 9.1305 18.0707 10.0045 18.6472C9.71984 20.9161 8.94597 24.2417 6.91379 27.4912C6.46997 28.2034 6.6872 29.1407 7.39944 29.5846C8.1118 30.0289 9.04905 29.8113 9.493 29.0991Z" fill="white"/>
<path d="M14.8589 11.1161C14.4214 10.7421 14.0544 10.3286 13.7516 9.92692C13.4272 9.49647 13.1767 9.07963 12.9957 8.7401C12.6187 8.03516 12.4523 7.50769 12.4453 7.48557C12.3882 7.29739 12.2623 7.14422 12.0905 7.05219C11.9185 6.96054 11.7214 6.94096 11.5351 6.99761C11.4889 7.01159 11.4443 7.03031 11.4022 7.05268C11.0968 7.21582 10.9481 7.57528 11.049 7.90751C11.0848 8.02203 11.2832 8.6296 11.709 9.42766C12.1582 10.2667 12.6898 11.0077 13.2944 11.6396C13.4917 11.8459 13.6966 12.0408 13.9091 12.2234C14.7141 12.9167 16.0491 13.7665 17.9019 13.9846C17.9884 13.9948 18.0746 14.0053 18.1634 14.0125C18.3041 14.0245 18.4439 13.9955 18.5674 13.9295C18.6123 13.9054 18.6531 13.8763 18.6914 13.8445C18.8397 13.7208 18.9348 13.5436 18.9514 13.3465C18.968 13.1522 18.9078 12.9637 18.7817 12.8149C18.6562 12.6656 18.48 12.5749 18.2858 12.5586C18.2331 12.5542 18.1815 12.5481 18.1296 12.5424C17.7933 12.5055 17.4689 12.4443 17.1554 12.3573C16.3203 12.126 15.5621 11.7157 14.8589 11.1161Z" fill="white"/>
</g>
</g>
<defs>
<clipPath id="clip0_475_1038">
<rect width="30" height="30" fill="white" transform="translate(0.832031 0.0585938)"/>
</clipPath>
<clipPath id="clip1_475_1038">
<rect width="30" height="30" fill="white" transform="translate(0.832031 0.0585938)"/>
</clipPath>
</defs>
</svg>