<svg
    xmlns="http://www.w3.org/2000/svg"
    width="36"
    height="36"
    viewBox="0 0 36 36"
    fill="none"
>
    <path
    d="M17.5082 7.66409L20.2426 4.92971C20.9536 4.21873 21.7976 3.65474 22.7266 3.26996C23.6555 2.88518 24.6512 2.68713 25.6566 2.68713C26.6621 2.68713 27.6578 2.88518 28.5867 3.26996C29.5157 3.65474 30.3597 4.21873 31.0707 4.92971C31.7817 5.6407 32.3457 6.48476 32.7305 7.4137C33.1152 8.34265 33.3133 9.33829 33.3133 10.3438C33.3133 11.3493 33.1152 12.3449 32.7305 13.2738C32.3457 14.2028 31.7817 15.0469 31.0707 15.7578L25.602 21.2266C24.891 21.9376 24.0469 22.5016 23.118 22.8865C22.189 23.2713 21.1934 23.4693 20.1879 23.4693C19.1824 23.4693 18.1867 23.2713 17.2578 22.8865C16.3288 22.5016 15.4848 21.9376 14.7738 21.2266C14.4837 20.9156 14.3256 20.5042 14.3329 20.0789C14.3403 19.6537 14.5125 19.2479 14.8132 18.9472C15.1139 18.6465 15.5197 18.4743 15.9449 18.467C16.3702 18.4596 16.7816 18.6177 17.0926 18.9078C17.4989 19.3146 17.9814 19.6373 18.5125 19.8575C19.0436 20.0776 19.6129 20.191 20.1879 20.191C20.7628 20.191 21.3321 20.0776 21.8633 19.8575C22.3944 19.6373 22.8769 19.3146 23.2832 18.9078L28.752 13.4391C29.5329 12.6101 29.9603 11.5096 29.9433 10.3708C29.9264 9.232 29.4664 8.14463 28.6611 7.3393C27.8558 6.53398 26.7684 6.07406 25.6296 6.0571C24.4909 6.04014 23.3903 6.46748 22.5613 7.24846L19.827 9.98284C19.516 10.273 19.1045 10.4311 18.6793 10.4237C18.2541 10.4164 17.8483 10.2442 17.5476 9.94346C17.2469 9.64272 17.0747 9.23696 17.0673 8.81173C17.06 8.3865 17.218 7.97503 17.5082 7.66409ZM7.24883 28.7516C7.65515 29.1584 8.13766 29.4811 8.66878 29.7012C9.19989 29.9214 9.7692 30.0347 10.3441 30.0347C10.9191 30.0347 11.4884 29.9214 12.0195 29.7012C12.5506 29.4811 13.0331 29.1584 13.4395 28.7516L16.1738 26.0172C16.4848 25.7271 16.8962 25.569 17.3215 25.5763C17.7467 25.5837 18.1525 25.7559 18.4532 26.0566C18.7539 26.3573 18.9261 26.7631 18.9335 27.1883C18.9408 27.6136 18.7827 28.025 18.4926 28.336L15.7582 31.0703C15.0472 31.7813 14.2032 32.3453 13.2742 32.7301C12.3453 33.1149 11.3496 33.3129 10.3441 33.3129C9.33866 33.3129 8.34302 33.1149 7.41407 32.7301C6.48512 32.3453 5.64106 31.7813 4.93008 31.0703C4.21909 30.3594 3.65511 29.5153 3.27033 28.5863C2.88554 27.6574 2.6875 26.6618 2.6875 25.6563C2.6875 24.6508 2.88554 23.6552 3.27033 22.7262C3.65511 21.7973 4.21909 20.9532 4.93008 20.2422L10.3988 14.7735C11.1098 14.0624 11.9538 13.4984 12.8828 13.1136C13.8117 12.7288 14.8074 12.5307 15.8129 12.5307C16.8184 12.5307 17.814 12.7288 18.743 13.1136C19.6719 13.4984 20.516 14.0624 21.227 14.7735C21.5171 15.0844 21.6752 15.4959 21.6678 15.9211C21.6605 16.3463 21.4883 16.7521 21.1876 17.0528C20.8868 17.3536 20.4811 17.5257 20.0558 17.5331C19.6306 17.5404 19.2191 17.3824 18.9082 17.0922C18.5019 16.6854 18.0194 16.3627 17.4883 16.1426C16.9571 15.9224 16.3878 15.8091 15.8129 15.8091C15.2379 15.8091 14.6686 15.9224 14.1375 16.1426C13.6064 16.3627 13.1239 16.6854 12.7176 17.0922L7.24883 22.561C6.84206 22.9673 6.51936 23.4498 6.29919 23.9809C6.07902 24.512 5.9657 25.0813 5.9657 25.6563C5.9657 26.2312 6.07902 26.8005 6.29919 27.3316C6.51936 27.8628 6.84206 28.3453 7.24883 28.7516Z"
    fill="#000000"
    />
</svg>