<svg
    xmlns="http://www.w3.org/2000/svg"
    width="24"
    height="24"
    viewBox="0 0 24 24"
    fill="none"
    >
    <g filter="url(#filter0_d_1_2794)">
        <path
        d="M13.5 7.5C12.9067 7.5 12.3266 7.32405 11.8333 6.99441C11.3399 6.66477 10.9554 6.19623 10.7284 5.64805C10.5013 5.09987 10.4419 4.49667 10.5576 3.91473C10.6734 3.33279 10.9591 2.79824 11.3787 2.37868C11.7982 1.95912 12.3328 1.6734 12.9147 1.55765C13.4967 1.44189 14.0999 1.5013 14.6481 1.72836C15.1962 1.95543 15.6648 2.33994 15.9944 2.83329C16.3241 3.32664 16.5 3.90666 16.5 4.5C16.5 5.29565 16.1839 6.05871 15.6213 6.62132C15.0587 7.18393 14.2957 7.5 13.5 7.5ZM13.5 3C13.2033 3 12.9133 3.08797 12.6666 3.2528C12.42 3.41762 12.2277 3.65189 12.1142 3.92598C12.0007 4.20007 11.9709 4.50167 12.0288 4.79264C12.0867 5.08361 12.2296 5.35088 12.4393 5.56066C12.6491 5.77044 12.9164 5.9133 13.2074 5.97118C13.4983 6.02906 13.7999 5.99935 14.074 5.88582C14.3481 5.77229 14.5824 5.58003 14.7472 5.33336C14.912 5.08668 15 4.79667 15 4.5C15 4.10218 14.842 3.72065 14.5607 3.43934C14.2794 3.15804 13.8978 3 13.5 3Z"
        fill="#000000"
        />
        <path
        d="M21.75 18.1275C21.6178 18.128 21.4879 18.0936 21.3733 18.0278C21.2587 17.9619 21.1636 17.867 21.0975 17.7525L18.675 13.59C18.5296 13.3394 18.3221 13.1305 18.0725 12.9834C17.8229 12.8363 17.5397 12.7559 17.25 12.75H14.865C14.3041 12.75 13.7661 12.5272 13.3695 12.1305C12.9728 11.7339 12.75 11.1959 12.75 10.635V6.75C12.75 6.55109 12.829 6.36032 12.9697 6.21967C13.1103 6.07902 13.3011 6 13.5 6C13.6989 6 13.8897 6.07902 14.0303 6.21967C14.171 6.36032 14.25 6.55109 14.25 6.75V10.665C14.25 10.8281 14.3148 10.9845 14.4301 11.0999C14.5455 11.2152 14.7019 11.28 14.865 11.28H17.25C17.808 11.2803 18.356 11.4273 18.8392 11.7064C19.3223 11.9855 19.7235 12.3868 20.0025 12.87L22.41 17.0325C22.4756 17.1462 22.5103 17.2751 22.5105 17.4064C22.5107 17.5376 22.4764 17.6667 22.4111 17.7806C22.3458 17.8944 22.2518 17.9892 22.1384 18.0553C22.025 18.1215 21.8963 18.1567 21.765 18.1575L21.75 18.1275Z"
        fill="#000000"
        />
        <path
        d="M17.6174 9.75H13.4999C13.301 9.75 13.1102 9.67098 12.9696 9.53033C12.8289 9.38968 12.7499 9.19891 12.7499 9C12.7499 8.80109 12.8289 8.61032 12.9696 8.46967C13.1102 8.32902 13.301 8.25 13.4999 8.25H17.6174C17.8163 8.25 18.0071 8.32902 18.1477 8.46967C18.2884 8.61032 18.3674 8.80109 18.3674 9C18.3674 9.19891 18.2884 9.38968 18.1477 9.53033C18.0071 9.67098 17.8163 9.75 17.6174 9.75ZM11.9999 19.7475C10.6715 19.7479 9.38225 19.298 8.34259 18.4711C7.30293 17.6442 6.57432 16.4893 6.27575 15.1949C5.97718 13.9005 6.12628 12.5431 6.69871 11.3444C7.27113 10.1457 8.23306 9.17647 9.42742 8.595C9.51606 8.55166 9.61237 8.52621 9.71085 8.5201C9.80933 8.51398 9.90805 8.52732 10.0014 8.55936C10.0947 8.59139 10.1808 8.6415 10.2548 8.70681C10.3287 8.77212 10.3891 8.85136 10.4324 8.94C10.4758 9.02864 10.5012 9.12495 10.5073 9.22343C10.5134 9.32191 10.5001 9.42063 10.4681 9.51395C10.436 9.60727 10.3859 9.69337 10.3206 9.76733C10.2553 9.84129 10.1761 9.90166 10.0874 9.945C9.45348 10.2521 8.90312 10.7078 8.48317 11.2733C8.06322 11.8388 7.78612 12.4974 7.67544 13.1931C7.56476 13.8887 7.62379 14.6008 7.84749 15.2688C8.0712 15.9367 8.45296 16.5407 8.96029 17.0293C9.46763 17.518 10.0855 17.8769 10.7614 18.0754C11.4372 18.2739 12.151 18.3062 12.842 18.1695C13.533 18.0328 14.1808 17.7313 14.7302 17.2904C15.2796 16.8496 15.7143 16.2825 15.9974 15.6375C16.078 15.4545 16.2279 15.311 16.4143 15.2386C16.6007 15.1661 16.8082 15.1707 16.9912 15.2512C17.1742 15.3318 17.3177 15.4818 17.3901 15.6681C17.4625 15.8545 17.458 16.062 17.3774 16.245C16.916 17.2864 16.1623 18.1717 15.2078 18.7933C14.2534 19.415 13.139 19.7465 11.9999 19.7475Z"
        fill="#000000"
        />
        <path
        d="M12 15C11.7033 15 11.4133 14.912 11.1666 14.7472C10.92 14.5824 10.7277 14.3481 10.6142 14.074C10.5006 13.7999 10.4709 13.4983 10.5288 13.2074C10.5867 12.9164 10.7296 12.6491 10.9393 12.4393C11.1491 12.2296 11.4164 12.0867 11.7074 12.0288C11.9983 11.9709 12.2999 12.0006 12.574 12.1142C12.8481 12.2277 13.0824 12.42 13.2472 12.6666C13.412 12.9133 13.5 13.2033 13.5 13.5C13.5 13.8978 13.342 14.2794 13.0607 14.5607C12.7794 14.842 12.3978 15 12 15Z"
        fill="#000000"
        />
    </g>
</svg>