<svg xmlns="http://www.w3.org/2000/svg" width="36" height="36" viewBox="0 0 36 36" fill="none"><g clip-path="url(#clip0_45_275)"><path d="M18 4.875C18.3572 4.87505 18.702 5.00619 18.9689 5.24354C19.2358 5.4809 19.4063 5.80797 19.4481 6.16271L19.4583 6.33333V29.6667C19.4579 30.0384 19.3156 30.3959 19.0604 30.6662C18.8053 30.9364 18.4565 31.0991 18.0855 31.1209C17.7144 31.1427 17.349 31.0219 17.064 30.7834C16.779 30.5448 16.5958 30.2064 16.5519 29.8373L16.5417 29.6667V6.33333C16.5417 5.94656 16.6953 5.57563 16.9688 5.30214C17.2423 5.02865 17.6132 4.875 18 4.875ZM12.1667 9.25C12.5534 9.25 12.9244 9.40365 13.1979 9.67714C13.4714 9.95063 13.625 10.3216 13.625 10.7083V25.2917C13.625 25.6784 13.4714 26.0494 13.1979 26.3229C12.9244 26.5964 12.5534 26.75 12.1667 26.75C11.7799 26.75 11.409 26.5964 11.1355 26.3229C10.862 26.0494 10.7083 25.6784 10.7083 25.2917V10.7083C10.7083 10.3216 10.862 9.95063 11.1355 9.67714C11.409 9.40365 11.7799 9.25 12.1667 9.25ZM23.8333 9.25C24.2201 9.25 24.591 9.40365 24.8645 9.67714C25.138 9.95063 25.2917 10.3216 25.2917 10.7083V25.2917C25.2917 25.6784 25.138 26.0494 24.8645 26.3229C24.591 26.5964 24.2201 26.75 23.8333 26.75C23.4466 26.75 23.0756 26.5964 22.8021 26.3229C22.5286 26.0494 22.375 25.6784 22.375 25.2917V10.7083C22.375 10.3216 22.5286 9.95063 22.8021 9.67714C23.0756 9.40365 23.4466 9.25 23.8333 9.25ZM6.33333 13.625C6.72011 13.625 7.09104 13.7786 7.36453 14.0521C7.63802 14.3256 7.79167 14.6966 7.79167 15.0833V20.9167C7.79167 21.3034 7.63802 21.6744 7.36453 21.9479C7.09104 22.2214 6.72011 22.375 6.33333 22.375C5.94656 22.375 5.57563 22.2214 5.30214 21.9479C5.02865 21.6744 4.875 21.3034 4.875 20.9167V15.0833C4.875 14.6966 5.02865 14.3256 5.30214 14.0521C5.57563 13.7786 5.94656 13.625 6.33333 13.625ZM29.6667 13.625C30.0239 13.625 30.3686 13.7562 30.6355 13.9935C30.9025 14.2309 31.073 14.558 31.1148 14.9127L31.125 15.0833V20.9167C31.1246 21.2884 30.9823 21.6459 30.7271 21.9162C30.4719 22.1864 30.1232 22.3491 29.7521 22.3709C29.3811 22.3927 29.0157 22.2719 28.7307 22.0334C28.4456 21.7948 28.2624 21.4564 28.2185 21.0873L28.2083 20.9167V15.0833C28.2083 14.6966 28.362 14.3256 28.6355 14.0521C28.909 13.7786 29.2799 13.625 29.6667 13.625Z" fill="#00499E"></path></g><defs><clipPath id="clip0_45_275"><rect width="35" height="35" fill="white" transform="translate(0.5 0.5)"></rect></clipPath></defs></svg>